Patient4_TMGait_0pt8_01_left_01_EMG.mot
version=1
nRows=40
nColumns=33
inDegrees=no
endheader
time	1LAddLong	2LGlutMax	3LGlutMed	4LIliopsoas	5LSemiMemb	6LBicFemLong	7LRecFem	8LVastMed	9LVastLat	10LGasMed	11LTibAnt	12lTibPost	13LPeroneusLong	14LSol	15LExtDigLong	16LFlexDigLong	17RAddLong	18RGlutMax	19RGlutMed	20RIliopsoas	21RSemiMemb	22RBicFemLong	23RRecFem	24RVastMed	25RVastLat	26RGasMed	27RTibAnt	28RTibPost	29RPeroneusLong	30RSol	31RExtDigLong	32RFlexDigLong
0.542	-0.002136	1.0197	-0.19165	0.00946	0.014801	-0.33875	-0.14282	0.000305	-0.50217	0.060883	-0.046387	0.009308	-0.028992	0.25742	-0.25497	-0.027161	-0.11643	-0.27344	-0.76248	0.30456	-0.13001	-0.048218	0.75211	-0.18173	-0.04303	-0.004272	-0.17975	-0.005798	-0.18768	0.11887	0.000153	-0.016479
0.543	-0.000458	1.0379	-0.29511	-0.001984	0.069122	-0.41519	-0.1091	-0.007172	-0.48279	0.15732	-0.097198	0.013275	-0.066223	0.077667	-0.23102	0.30426	-0.13596	-0.29892	-0.76492	0.38116	-0.07782	0.040588	0.73395	-0.10559	-0.046234	-0.004883	0.092773	-0.007782	-0.073395	0.13229	-0.00061	-0.020905
0.544	-0.00824	1.172	-0.13306	-0.003357	0.11993	-0.36804	0.063934	-0.006561	-0.5101	0.054321	-0.075989	0.074768	-0.16342	0.022583	-0.093079	0.98923	-0.053253	-0.26108	-0.76523	0.25467	-0.10651	0.091705	0.75821	-0.15701	-0.041504	-0.007782	-0.087585	-0.00824	-0.053864	0.1918	-0.001221	-0.019073
0.545	-0.007477	1.1824	0.050812	0.007935	0.048828	-0.18158	0.15717	-0.004883	-0.4834	-0.13763	-0.033875	0.1767	0.006104	-0.046082	0.011749	0.30777	-0.016174	-0.22308	-0.76584	0.1294	-0.12497	0.15121	0.83023	-0.18021	-0.065765	-0.012054	-0.15976	-0.005341	0.030365	0.19348	0.000763	-0.019226
0.546	-0.008087	1.1313	0.017395	-0.00412	0.014343	0.018158	0.17441	0.00351	-0.46326	-0.13886	-0.034027	0.069122	0.1355	0.005951	0.023041	0.038147	-0.015869	-0.21378	-0.80185	-0.057983	-0.045624	0.16678	0.82703	-0.16495	-0.062408	-0.009766	0.22247	-0.011749	0.065308	0.078278	0.003815	-0.010834
0.547	0.00412	1.1076	-0.10498	-0.000458	0.036163	0.12146	0.20447	0.015259	-0.42328	-0.3215	-0.027771	-0.22201	0.13901	-0.12299	0.074768	-0.85678	-0.027924	-0.23727	-0.80826	-0.21088	0.02655	0.24445	0.86731	-0.12985	-0.070801	-0.002441	0.28305	-0.007172	0.072327	0.079346	0.002747	-0.018616
0.548	0.007782	1.0631	-0.30731	-0.002899	0.026245	0.26977	0.23544	0.012207	-0.43366	-0.2449	-0.015564	-0.057983	0.061951	-0.32928	0.075226	-0.23941	0.005798	-0.22537	-0.793	-0.33188	-0.01358	0.15015	0.87189	-0.15793	-0.064087	-0.005951	0.14236	-0.00824	0.052032	0.079651	0.007935	-0.014801
0.549	-0.000305	1.0316	-0.35782	-0.007172	-0.013885	0.29572	0.29694	0.02243	-0.41428	-0.050964	-0.019226	-0.018921	0.069885	-0.13733	0.062866	0.20065	0.063019	-0.27863	-0.85586	-0.34088	-0.06897	0.067291	0.90744	-0.19455	-0.062866	-0.003662	0.077667	-0.005341	0.005798	0.00946	0.001984	-0.0177
0.55	-0.010071	1.1284	-0.24689	-0.002594	0.056458	0.16098	0.36621	0.011139	-0.38452	0.081787	0.002441	-0.085907	0.003357	-0.53497	0.023804	0.068359	0.023499	-0.23666	-0.87631	-0.29419	-0.057373	0.063782	0.92819	-0.13733	-0.059509	0.006561	-0.29083	-0.00351	0.043488	-0.16464	0	-0.010223
0.551	-0.012512	1.216	-0.20248	0.016327	0.067291	-0.25818	0.31754	0.011749	-0.34347	0.058289	0.014648	0.023193	-0.013733	-0.784	0.001984	0.14938	0.049286	-0.215	-0.7869	-0.2739	-0.070038	0.084991	0.85709	-0.12283	-0.045776	0.008545	0.38483	-0.00885	-0.038147	-0.21973	0.002441	-0.00885
0.552	0.008392	1.2531	-0.1506	0.013733	0.053253	-0.2829	0.2449	0.008087	-0.32272	0.11566	0.015259	0.014801	-0.032349	-0.88592	0.031128	0.083008	0.04715	-0.18036	-0.78766	-0.16785	-0.052185	0.1091	0.82367	-0.19486	-0.045624	0.012817	0.51544	-0.005493	0.046997	-0.26169	0.002441	-0.005951
0.553	0.009155	1.4392	-0.10452	0.00946	0.034485	-0.11368	0.15549	0.007782	-0.30685	0.084534	0.00412	0.092163	-0.083923	-0.24857	0.057983	0.20233	0.022888	-0.27908	-0.83069	-0.038605	0.01236	0.14496	0.78949	-0.17212	-0.046387	0.018768	0.15533	-0.004578	0.09079	-0.27985	-0.001831	-0.009155
0.554	0.001221	1.5155	-0.10605	0.001221	-0.013733	0.14908	0.11185	0.01236	-0.32211	0.10147	-0.039978	0.2594	0.007935	-0.38177	0.11612	-0.27802	0.022125	-0.34912	-0.67917	-0.05661	0.056305	0.18494	0.80963	-0.15579	-0.047455	0.008392	-0.38635	-0.006256	-0.057373	-0.12329	0.000763	-0.010223
0.555	0.000153	1.5331	-0.18143	0.006104	-0.065765	0.23285	0.077667	0.009918	-0.29221	-0.18692	-0.041199	-0.18631	0.2063	-0.51178	0.13397	-0.016937	0.046997	-0.3865	-0.34607	-0.030975	0.089722	0.13168	0.82092	-0.16693	-0.053101	0.001221	-0.40192	-0.002136	-0.088348	-0.017242	0.002441	-0.013123
0.556	-0.006104	1.5015	-0.17914	0.006104	-0.10101	0.20615	0.091095	0.027771	-0.30228	-0.46524	-0.019836	-0.18417	0.19684	-0.49377	0.12848	0.25696	0.090942	-0.44601	-0.32913	0.12146	0.06546	0.044403	0.7962	-0.19928	-0.055695	0.003204	0.055389	-0.006104	-0.13016	-0.10483	0.000763	-0.017853
0.557	0.003204	1.2904	-0.35431	0.008087	-0.11643	0.10925	0.012512	0.070038	-0.36728	-0.94177	0.016174	0.084991	-0.045776	-0.5249	0.091705	-0.001678	0.10117	-0.45792	-0.65826	0.11856	0.038757	0.055542	0.78827	-0.168	-0.074921	0.01297	0.31067	-0.000763	-0.074005	-0.17059	0.003052	-0.023499
0.558	0.027771	1.223	-0.3865	-0.001526	-0.032349	0.001068	-0.1088	0.062866	-0.35263	-1.0223	0.000153	0.28885	-0.041351	-0.27893	0.080872	-0.23407	0.10239	-0.43274	-0.6694	0.01236	0.015259	0.067444	0.76019	-0.26413	-0.064697	0.010223	0.19272	-0.000763	-0.003204	-0.085907	0.001221	-0.024719
0.559	0.029449	1.0703	-0.36209	-0.015564	-0.027618	-0.27054	-0.18616	0.016479	-0.32516	-0.45914	-0.021667	-0.49271	0.089111	0.13092	0.043335	-0.20355	0.10483	-0.44067	-0.87479	-0.016327	-0.008698	0.070648	0.76523	-0.26947	-0.086517	0.008392	-0.47363	-0.000458	0.012817	0.064087	0.003815	-0.018921
0.56	0.011902	0.93781	-0.16556	-0.002747	-0.033722	-0.14435	-0.2449	0.004883	-0.32227	0.30243	-0.015106	-0.21362	0.083313	0.34363	0.0354	-0.088196	0.07019	-0.46081	-1.2086	-0.034637	-0.0354	0.072937	0.61264	-0.30594	-0.10223	0.001831	-0.43274	0	-0.08316	0.21088	0.003662	-0.026093
0.561	0.001526	0.811	-0.070038	0.00824	0.002899	-0.1857	-0.31311	0.020142	-0.27512	0.76721	-0.003204	0.041504	0.024719	0.34103	-0.024567	-0.13245	0.025635	-0.48462	-1.2029	0.001526	-0.005035	0.096741	0.58762	-0.32272	-0.10208	-0.007324	0.44022	-0.000916	-0.14664	0.30807	0.001831	-0.023651
0.562	-0.007629	0.72784	-0.066986	0.00824	-0.097809	-0.13534	-0.37582	0.021973	-0.22354	0.56961	0.005493	0.072174	-0.13168	0.57556	-0.05127	-0.026245	-0.020294	-0.48492	-1.2317	0.051575	0.020905	0.055695	0.56442	-0.26382	-0.088348	-0.017242	0.60165	-0.001678	-0.20187	0.24185	0.002289	-0.02655
0.563	0.007477	0.62622	-0.076752	0.015564	-0.19562	0.024872	-0.40649	-0.003204	-0.17334	0.003052	0.01236	0.07431	-0.11948	0.089417	-0.088806	-0.063934	0.041199	-0.47531	-1.0213	0.01358	-0.030365	0.054016	0.62088	-0.26535	-0.10117	-0.012207	0.87265	-0.003052	-0.25986	0.058746	0.002441	-0.018921
0.564	0.036774	0.68375	-0.10132	0.00824	-0.14862	0.023346	-0.4306	-0.04303	-0.20416	-0.12329	0.015259	-0.055695	-0.10513	-0.070038	-0.098267	-0.089111	0.10986	-0.47531	-0.97092	-0.003052	-0.061188	-0.061035	0.70557	-0.29419	-0.093079	-0.004883	0.46417	0.002899	-0.16296	-0.076447	-0.00061	-0.020905
0.565	0.036469	0.62698	-0.038757	0.002136	-0.089417	-0.112	-0.44144	-0.026245	-0.20035	-0.13473	0.011139	0.041504	0.006866	0.18982	-0.081177	0.087738	0.08606	-0.38803	-0.94254	0.002899	-0.038452	-0.13092	0.7283	-0.25482	-0.090332	0.020294	0.3569	0.002747	0.13412	-0.14114	0.008545	-0.014038
0.566	0.041351	0.59418	-0.011444	0.008545	0.0354	-0.25116	-0.41489	-0.020752	-0.20721	-0.048218	0.008698	0.00946	0.085449	-0.2771	-0.033722	0.1561	0.027924	-0.29526	-0.97534	0.007324	-0.058899	-0.13962	0.76248	-0.22201	-0.087433	0.012054	-0.22293	-0.002136	0.15228	-0.16922	0.000763	-0.011902
0.567	0.032043	0.57098	0.076752	-0.000458	0.057373	-0.095978	-0.40787	-0.00351	-0.19302	-0.024567	0.011139	0.016174	0.084839	-0.049744	-0.042419	-0.06546	0.02121	-0.22903	-0.75485	-0.052795	-0.043488	-0.06958	0.84747	-0.15701	-0.08255	-0.004425	-0.61432	-0.001831	-0.055389	-0.13458	0.002747	-0.019226
0.568	0.023346	0.54245	0.044403	0.007172	0.050201	0.075531	-0.44601	0.009155	-0.11673	-0.08316	0.01358	0.010223	0.081635	0.11337	-0.022125	0.054779	-0.04837	-0.19898	-0.53635	-0.021973	-0.082245	0.026703	0.80994	-0.0737	-0.046387	0.005798	-0.48187	-0.000763	-0.036163	-0.18021	0.00061	-0.018463
0.569	0.034943	0.48752	-0.099945	0.007782	0.00885	0.13519	-0.4982	-0.005951	-0.042267	-0.074768	0.00824	0.19852	0.089264	0.003815	0.03067	0.095062	-0.097656	-0.23377	-0.62836	0.0177	-0.089874	0.2298	0.67703	-0.056152	-0.035706	0.008698	-0.062561	0.000916	0.010071	-0.16281	-0.001221	-0.019836
0.57	0.022583	0.42023	-0.28519	-0.012512	-0.015259	0.15182	-0.49423	-0.010376	0.039825	0.012512	0.003967	0.14954	0.07309	-0.4184	0.041351	0.054779	-0.1149	-0.25299	-0.81772	0.075378	-0.040283	0.44891	0.56595	-0.047455	-0.008392	0.00885	-0.049591	-0.000153	0.022278	-0.055847	0.001831	-0.022736
0.571	0.020447	0.45471	-0.1683	0.002441	-0.036621	0.005188	-0.54214	0.018921	0.050354	0.01236	0.001984	-0.25314	0.04425	-0.32196	0.044556	0.015564	-0.087128	-0.30853	-1.0353	0.13657	-0.005035	0.46738	0.57617	-0.12482	-0.043488	0.007477	-0.44861	0.006104	0.023041	0.016174	0.001984	-0.019684
0.572	0.011292	0.40863	0.14801	0.007782	-0.034027	-0.26077	-0.47546	0.010681	-0.029602	-0.058594	-0.010071	-0.027618	-0.007629	-0.31693	0.037994	0.032501	-0.056763	-0.2121	-0.7164	0.12878	0.03479	0.39154	0.62118	-0.11734	-0.047607	0.002594	-0.66406	0.000458	-0.037994	-0.001678	0.000916	-0.02182
0.573	0.008698	0.31509	0.16785	0.003052	0.009613	-0.1329	-0.50339	0.007782	0.097504	-0.081787	0.015106	-0.073853	-0.022888	-0.31525	0.016022	0.014038	-0.004272	-0.18326	-0.82855	0.10452	0.039673	0.24658	0.62241	-0.085754	-0.028229	0.007782	-0.4805	-0.000153	-0.052185	-0.13504	0.002289	-0.024109
0.574	-0.00885	0.23941	0.12146	0.01236	0.015411	-0.014801	-0.46158	0.014191	0.20279	-0.077209	0.034485	0.30411	-0.023956	-0.33295	0.014496	0.013275	0.045471	-0.15961	-0.82825	0.084991	0.026093	0.1506	0.58304	-0.21332	-0.05188	0.011902	-0.25726	0.002747	-0.021362	-0.18677	0.005341	-0.016785
0.575	-0.004578	0.18707	0.12878	-0.009613	-0.075378	-0.026398	-0.42419	0.016174	0.29968	-0.051117	0.020294	-0.15457	0.020752	-0.20325	0.024872	0.001068	0.058136	-0.093231	-0.7756	0.052643	-0.068512	0.14297	0.35584	-0.16724	-0.069275	0.008392	0.21912	0.001831	-0.093842	-0.16678	-0.001678	-0.021515
0.576	-0.001984	0.13733	0.006256	-0.026398	-0.1358	-0.082245	-0.44723	0.011749	0.31769	-0.045166	0.047913	-0.051727	0.02182	-0.057831	0.014801	-0.008392	0.037079	-0.075073	-0.84412	0.016632	-0.092621	0.092621	0.21118	-0.13168	-0.05661	0.011749	-0.08316	0.001221	0.070343	-0.1297	0.001373	-0.028992
0.577	-0.000458	0.061035	0.15045	-0.025177	-0.10391	-0.036469	-0.43671	0.014038	0.15274	-0.065002	0.049591	-0.027924	0.034943	-0.095673	0.017395	0.000458	0.039368	-0.048523	-0.67093	-0.048828	-0.14023	0.060883	0.25574	-0.12833	-0.058594	0	0.19623	0.001221	-0.040131	-0.079346	0.000763	-0.024109
0.578	-0.002594	-0.071259	0.20111	0.029449	-0.058594	0.003204	-0.40482	0.019836	-0.098877	0.084991	0.029602	-0.056763	0.035248	-0.10498	0.016174	-0.009308	0.012817	-0.11093	-0.71564	-0.065918	-0.14557	0.068207	0.44205	-0.11215	-0.070953	-0.019531	0.11856	-0.000916	-0.11002	0.084839	-0.00061	-0.029602
0.579	0.000458	-0.15915	0.18707	0.03006	-0.11215	0.075989	-0.41519	0.017395	-0.28488	0.15045	0.001984	-0.044708	0.048218	-0.081482	0.023499	-0.010529	0.008545	-0.06485	-1.006	-0.049591	-0.16388	0.067902	0.53741	-0.15182	-0.058441	-0.011444	-0.030212	-0.000153	-0.024261	0.1178	0.001526	-0.028687
0.58	0.010529	-0.24216	0.11749	0.005798	-0.013885	0.055389	-0.37247	-0.010529	-0.24536	0.1503	-0.033722	-0.052032	0.020142	-0.019836	0.007172	-0.000916	0.009766	-0.072174	-1.261	0.013123	-0.16586	0.052338	0.59815	-0.17349	-0.095825	0.001831	0.14526	0.002289	-0.025787	0.020447	0.000153	-0.014343
0.581	0.02594	-0.24399	0.11627	0.016937	0.034943	-0.011139	-0.30853	0.007629	-0.15854	0.086517	-0.074615	-0.048981	0.004425	-0.015106	0.006866	-0.021057	-0.019531	-0.11322	-1.2813	0.10742	-0.16159	0.093384	0.75699	-0.16632	-0.074463	-0.001373	0.23712	0.001678	-0.06958	-0.019531	-0.000305	-0.016632
